<?xml version="1.0" standalone="no"?><!DOCTYPE svg PUBLIC "-//W3C//DTD SVG 1.1//EN" "http://www.w3.org/Graphics/SVG/1.1/DTD/svg11.dtd"><svg t="1545102112344" class="icon" style="" viewBox="0 0 1024 1024" version="1.1" xmlns="http://www.w3.org/2000/svg" p-id="11125" xmlns:xlink="http://www.w3.org/1999/xlink" width="200" height="200"><defs><style type="text/css"></style></defs><path d="M423.2 733.3h177.7v280H423.2z" fill="#BA6032" p-id="11126"></path><path d="M600.8 1018.7H423.2c-3 0-5.4-2.4-5.4-5.4v-280c0-3 2.4-5.4 5.4-5.4h177.7c3 0 5.4 2.4 5.4 5.4v280c-0.1 3-2.5 5.4-5.5 5.4z m-172.2-10.8h166.9V738.7H428.6v269.2z" fill="#A3502F" p-id="11127"></path><path d="M508.3 733.3h92.6v280h-92.6z" fill="#AF5831" p-id="11128"></path><path d="M913.6 829.8H110.4c-2.1 0-4-1.2-4.8-3.1-0.9-1.9-0.7-4 0.6-5.7l401.6-502.7c2-2.5 6.4-2.5 8.4 0L917.8 821c1.3 1.6 1.6 3.8 0.6 5.7-0.9 1.9-2.8 3.1-4.8 3.1z m-792-10.8h780.7L512 330.4 121.6 819z" fill="#61A833" p-id="11129"></path><path d="M512 321.7L110.5 824.4h803z" fill="#6DC136" p-id="11130"></path><path d="M913.6 829.8H110.4c-2.1 0-4-1.2-4.8-3.1-0.9-1.9-0.7-4 0.6-5.7l401.6-502.7c2-2.5 6.4-2.5 8.4 0L917.8 821c1.3 1.6 1.6 3.8 0.6 5.7-0.9 1.9-2.8 3.1-4.8 3.1z m-792-10.8h780.7L512 330.4 121.6 819z" fill="#61A833" p-id="11131"></path><path d="M512 204.2L204.6 560.6h614.8z" fill="#6DC136" p-id="11132"></path><path d="M819.4 566H204.6c-2.1 0-4-1.2-4.9-3.2-0.9-1.9-0.6-4.2 0.8-5.8l307.4-356.4c2-2.4 6.1-2.4 8.2 0L823.5 557c1.4 1.6 1.7 3.9 0.8 5.8-0.9 2-2.8 3.2-4.9 3.2z m-603-10.8h591.3L512 212.5 216.4 555.2z" fill="#61A833" p-id="11133"></path><path d="M512 10.6l-245.5 334h491z" fill="#6DC136" p-id="11134"></path><path d="M757.5 350h-491c-2 0-3.9-1.1-4.8-2.9s-0.8-4 0.5-5.6l245.5-334c2-2.8 6.6-2.8 8.7 0l245.5 334c1.2 1.6 1.4 3.8 0.5 5.6-1.1 1.8-2.9 2.9-4.9 2.9z m-480.3-10.8h469.6L512 19.7 277.2 339.2z" fill="#61A833" p-id="11135"></path><path d="M702.8 560.6h116.6l-186.3-216h124.4L516.6 16.9l-4.6-6.3-0.9 1.2-99.3 812.6h501.7z" fill="#6AB53A" p-id="11136"></path><path d="M702.8 560.6h116.6l-186.3-216h124.4L516.6 16.9l145 807.5h251.9z" fill="#5DA52F" p-id="11137"></path><path d="M757.5 350h-491c-2 0-3.9-1.1-4.8-2.9s-0.8-4 0.5-5.6l245.5-334c2-2.8 6.6-2.8 8.7 0l245.5 334c1.2 1.6 1.4 3.8 0.5 5.6-1.1 1.8-2.9 2.9-4.9 2.9z m-480.3-10.8h469.6L512 19.7 277.2 339.2z" fill="#61A833" p-id="11138"></path><path d="M819.4 566H204.6c-2.1 0-4-1.2-4.9-3.2-0.9-1.9-0.6-4.2 0.8-5.8l186.3-216c1.9-2.2 5.3-2.5 7.6-0.5 2.2 1.9 2.5 5.3 0.5 7.6L216.4 555.2h591.3L629 348.1c-1.9-2.3-1.7-5.7 0.5-7.6 2.3-2 5.7-1.7 7.6 0.5l186.3 216c1.4 1.6 1.7 3.9 0.8 5.8-0.8 2-2.7 3.2-4.8 3.2z" fill="#61A833" p-id="11139"></path><path d="M913.6 829.8H110.4c-2.1 0-4-1.2-4.8-3.1-0.9-1.9-0.7-4 0.6-5.7L317 557.2c1.8-2.4 5.2-2.7 7.6-0.8 2.3 1.9 2.7 5.3 0.8 7.6L121.6 819h780.7L698.6 564c-1.9-2.3-1.5-5.7 0.8-7.6 2.4-1.8 5.7-1.5 7.6 0.8L917.8 821c1.3 1.6 1.6 3.8 0.6 5.7-0.9 1.9-2.8 3.1-4.8 3.1z" fill="#61A833" p-id="11140"></path></svg>