<?xml version="1.0" standalone="no"?><!DOCTYPE svg PUBLIC "-//W3C//DTD SVG 1.1//EN" "http://www.w3.org/Graphics/SVG/1.1/DTD/svg11.dtd"><svg t="1545102125660" class="icon" style="" viewBox="0 0 1024 1024" version="1.1" xmlns="http://www.w3.org/2000/svg" p-id="11261" xmlns:xlink="http://www.w3.org/1999/xlink" width="200" height="200"><defs><style type="text/css"></style></defs><path d="M620.5 208.4L696.4 77c10.8-18.6-2.7-41.9-24.2-41.9h-52.6L576.8 96 573 35H350.5c-21.5 0-35 23.3-24.2 41.9l75.9 131.4c-161.6 98.5-279.7 324-279.7 571.8 0 217 174.1 211.3 388.9 211.3s388.9 5.7 388.9-211.3c0-247.8-118.2-473.2-279.8-571.7z" fill="#E03F3F" p-id="11262"></path><path d="M543.4 1001.3h-48c-106.8-0.2-198.8 0.1-267.9-27-78.5-30.8-115-92.5-115-194.3 0-239.4 110.7-468.9 276.3-575.1l-71.1-123c-6.9-11.9-6.9-26 0-37.9 6.8-11.8 19.1-18.9 32.8-18.9H573c5.2 0 9.6 4.1 9.9 9.3l2.1 32.7 26.6-37.8c1.9-2.6 4.9-4.2 8.1-4.2h52.6c13.7 0 26 7.1 32.8 18.9s6.9 26 0 37.9L634 205.1c165.6 106.1 276.3 335.7 276.3 575.1 0 101.8-36.5 163.5-115 194.3-65.7 25.6-152.1 26.8-251.9 26.8z m-32.1-19.8h16c104.2 0 195 0.1 260.6-25.6 69.9-27.4 102.4-83.3 102.4-175.8 0-236.7-110.5-463-275-563.3-4.6-2.8-6.1-8.8-3.4-13.4L687.8 72c3.3-5.7 3.3-12.4 0-18-3.3-5.7-9.1-9-15.6-9h-47.4l-39.9 56.7c-2.4 3.5-6.8 5.1-10.8 3.8-4-1.1-6.9-4.7-7.2-8.9L563.7 45H350.5c-6.5 0-12.3 3.4-15.6 9-3.3 5.6-3.3 12.4 0 18l75.9 131.5c2.7 4.6 1.2 10.6-3.4 13.4-164.5 100.3-275 326.6-275 563.3 0 92.6 32.5 148.4 102.4 175.8 65.6 25.7 155.7 25.5 260.6 25.6h15.9z" fill="#F47658" p-id="11263"></path><path d="M389.9 187.2h242.5v45.2H389.9z" fill="#AF4A4A" p-id="11264"></path><path d="M511.1 437.3l48.7 98.5 108.8 15.8-78.8 76.8 18.6 108.3-97.3-51.1-97.3 51.1 18.6-108.3-78.7-76.8 108.8-15.8z" fill="#EDB732" p-id="11265"></path></svg>